<svg xmlns="http://www.w3.org/2000/svg" viewBox="0 0 300 250" width="300" height="250">
<style>
  text { font-family: Arial, sans-serif; }
  .label { font-size: 14px; fill: #e2e8f0; text-anchor: middle; dominant-baseline: middle; }
  .title { font-size: 16px; fill: #fbbf24; text-anchor: middle; font-weight: bold; }
  .dim { font-size: 12px; fill: #94a3b8; text-anchor: middle; }
  .shape { fill: rgba(147,51,234,0.3); stroke: #a855f7; stroke-width: 2; }
  .shape-solid { fill: rgba(59,130,246,0.3); stroke: #60a5fa; stroke-width: 2; }
  .shape-green { fill: rgba(34,197,94,0.3); stroke: #4ade80; stroke-width: 2; }
  .shape-orange { fill: rgba(251,146,60,0.3); stroke: #fb923c; stroke-width: 2; }
  .shape-red { fill: rgba(239,68,68,0.3); stroke: #f87171; stroke-width: 2; }
  .shape-yellow { fill: rgba(250,204,21,0.3); stroke: #facc15; stroke-width: 2; }
  .line { stroke: #94a3b8; stroke-width: 1.5; fill: none; }
  .dashed { stroke: #64748b; stroke-width: 1; stroke-dasharray: 5,5; fill: none; }
  .dot { fill: #fbbf24; }
  .grid-line { stroke: #334155; stroke-width: 0.5; }
  .axis { stroke: #64748b; stroke-width: 1.5; }
  .arrow { fill: #94a3b8; }
</style>
  <line x1="30" y1="30" x2="210" y2="30" class="grid-line"/>
  <line x1="30" y1="60" x2="210" y2="60" class="grid-line"/>
  <line x1="30" y1="90" x2="210" y2="90" class="grid-line"/>
  <line x1="30" y1="120" x2="210" y2="120" class="grid-line"/>
  <line x1="30" y1="150" x2="210" y2="150" class="grid-line"/>
  <line x1="30" y1="180" x2="210" y2="180" class="grid-line"/>
  <line x1="30" y1="210" x2="210" y2="210" class="grid-line"/>
  <line x1="30" y1="30" x2="30" y2="210" class="grid-line"/>
  <line x1="60" y1="30" x2="60" y2="210" class="grid-line"/>
  <line x1="90" y1="30" x2="90" y2="210" class="grid-line"/>
  <line x1="120" y1="30" x2="120" y2="210" class="grid-line"/>
  <line x1="150" y1="30" x2="150" y2="210" class="grid-line"/>
  <line x1="180" y1="30" x2="180" y2="210" class="grid-line"/>
  <line x1="210" y1="30" x2="210" y2="210" class="grid-line"/>
  <polygon points="60,60 150,60 180,150 90,180" fill="rgba(59,130,246,0.2)" stroke="#60a5fa" stroke-width="2"/>
  <circle cx="60" cy="60" r="4" class="dot"/>
  <circle cx="150" cy="60" r="4" class="dot"/>
  <circle cx="180" cy="150" r="4" class="dot"/>
  <circle cx="90" cy="180" r="4" class="dot"/>
  <text x="150" y="235" class="title">格点多边形的面积</text>
</svg>