<svg xmlns="http://www.w3.org/2000/svg" viewBox="0 0 320 280" width="320" height="280">
<style>
  text { font-family: Arial, sans-serif; }
  .label { font-size: 14px; fill: #e2e8f0; text-anchor: middle; dominant-baseline: middle; }
  .title { font-size: 16px; fill: #fbbf24; text-anchor: middle; font-weight: bold; }
  .dim { font-size: 12px; fill: #94a3b8; text-anchor: middle; }
  .shape { fill: rgba(147,51,234,0.3); stroke: #a855f7; stroke-width: 2; }
  .shape-solid { fill: rgba(59,130,246,0.3); stroke: #60a5fa; stroke-width: 2; }
  .shape-green { fill: rgba(34,197,94,0.3); stroke: #4ade80; stroke-width: 2; }
  .shape-orange { fill: rgba(251,146,60,0.3); stroke: #fb923c; stroke-width: 2; }
  .shape-red { fill: rgba(239,68,68,0.3); stroke: #f87171; stroke-width: 2; }
  .shape-yellow { fill: rgba(250,204,21,0.3); stroke: #facc15; stroke-width: 2; }
  .line { stroke: #94a3b8; stroke-width: 1.5; fill: none; }
  .dashed { stroke: #64748b; stroke-width: 1; stroke-dasharray: 5,5; fill: none; }
  .dot { fill: #fbbf24; }
  .grid-line { stroke: #334155; stroke-width: 0.5; }
  .axis { stroke: #64748b; stroke-width: 1.5; }
  .arrow { fill: #94a3b8; }
</style>
  <line x1="40" y1="240" x2="40" y2="40" stroke="#64748b" stroke-width="2"/>
  <line x1="40" y1="240" x2="280" y2="240" stroke="#64748b" stroke-width="2"/>
  <line x1="280" y1="235" x2="285" y2="240" stroke="#64748b" stroke-width="2"/>
  <line x1="280" y1="245" x2="285" y2="240" stroke="#64748b" stroke-width="2"/>
  <line x1="40" y1="235" x2="40" y2="245" stroke="#475569" stroke-width="1"/><text x="40" y="260" class="dim" font-size="10">0</text>
  <line x1="85" y1="235" x2="85" y2="245" stroke="#475569" stroke-width="1"/><text x="85" y="260" class="dim" font-size="10">1</text>
  <line x1="130" y1="235" x2="130" y2="245" stroke="#475569" stroke-width="1"/><text x="130" y="260" class="dim" font-size="10">2</text>
  <line x1="175" y1="235" x2="175" y2="245" stroke="#475569" stroke-width="1"/><text x="175" y="260" class="dim" font-size="10">3</text>
  <line x1="220" y1="235" x2="220" y2="245" stroke="#475569" stroke-width="1"/><text x="220" y="260" class="dim" font-size="10">4</text>
  <line x1="265" y1="235" x2="265" y2="245" stroke="#475569" stroke-width="1"/><text x="265" y="260" class="dim" font-size="10">5</text>
  <line x1="35" y1="240" x2="45" y2="240" stroke="#475569" stroke-width="1"/><text x="25" y="244" class="dim" font-size="10">0</text>
  <line x1="35" y1="195" x2="45" y2="195" stroke="#475569" stroke-width="1"/><text x="25" y="199" class="dim" font-size="10">1</text>
  <line x1="35" y1="150" x2="45" y2="150" stroke="#475569" stroke-width="1"/><text x="25" y="154" class="dim" font-size="10">2</text>
  <line x1="35" y1="105" x2="45" y2="105" stroke="#475569" stroke-width="1"/><text x="25" y="109" class="dim" font-size="10">3</text>
  <line x1="35" y1="60" x2="45" y2="60" stroke="#475569" stroke-width="1"/><text x="25" y="64" class="dim" font-size="10">4</text>
  <circle cx="175" cy="105" r="6" class="dot"/>
  <text x="185" y="105" class="label" font-size="12">A(3,3)</text>
  <circle cx="85" cy="150" r="6" class="dot"/>
  <text x="95" y="150" class="label" font-size="12">B(1,2)</text>
  <text x="160" y="20" class="title">平面直角坐标系</text>
</svg>